# xmcd CD database file
#
# Track frame offsets:
#	150
#	22179
#	40971
#	59355
#	77941
#	92485
#	114157
#	130780
#	144982
#	162144
#	180301
#	196736
#
# Disc length: 2861 seconds
#
# Revision: 0
# Processed by: cddbd v1.5PL3 Copyright (c) Steve Scherf et al.
# Submitted via: CDex 1.50beta10
#
DISCID=920b2b0c
DTITLE=氷川きよし - 大井追っかけ音次郎〜青春編
DYEAR=2001
DGENRE=Blues
TTITLE0=大井追っかけ音次郎〜青春編
TTITLE1=純子の港町
TTITLE2=北荒野
TTITLE3=花の渡り鳥
TTITLE4=浅草人情
TTITLE5=箱根八里の半次郎
TTITLE6=雪の渡り鳥
TTITLE7=僕は泣いちっち
TTITLE8=雨に咲く花
TTITLE9=さすらい
TTITLE10=あの娘を訪ねて
TTITLE11=無法松の一生〜度胸千両入り〜
EXTD=YEAR: 2001
EXTT0=
EXTT1=
EXTT2=
EXTT3=
EXTT4=
EXTT5=
EXTT6=
EXTT7=
EXTT8=
EXTT9=
EXTT10=
EXTT11=
PLAYORDER=
